<?xml version="1.0" standalone="no"?><!DOCTYPE svg PUBLIC "-//W3C//DTD SVG 1.1//EN" "http://www.w3.org/Graphics/SVG/1.1/DTD/svg11.dtd"><svg t="1565922180509" class="icon" viewBox="0 0 1024 1024" version="1.1" xmlns="http://www.w3.org/2000/svg" p-id="1115" width="16" height="16" xmlns:xlink="http://www.w3.org/1999/xlink"><defs><style type="text/css"></style></defs><path d="M187.076923 657.723077l175.261539 175.261538c7.876923 7.876923 19.692308 7.876923 27.56923 0L827.076923 393.846154c7.876923-7.876923 7.876923-19.692308 0-27.569231l-173.292308-173.292308c-7.876923-7.876923-19.692308-7.876923-27.56923 0L187.076923 632.123077c-7.876923 7.876923-7.876923 19.692308 0 25.6zM710.892308 112.246154c-7.876923 7.876923-7.876923 19.692308 0 27.569231l173.292307 173.292307c7.876923 7.876923 19.692308 7.876923 27.569231 0l49.230769-49.230769c31.507692-29.538462 31.507692-76.8 0-108.307692l-92.553846-92.553846c-31.507692-31.507692-80.738462-31.507692-112.246154 0l-45.292307 49.230769z m-669.538462 836.923077c-3.938462 19.692308 13.784615 37.415385 33.476923 33.476923l214.646154-51.2c7.876923-1.969231 13.784615-5.907692 17.723077-9.846154l3.938462-3.938462c3.938462-3.938462 5.907692-17.723077-1.969231-25.6l-177.230769-177.230769c-7.876923-7.876923-21.661538-5.907692-25.6-1.969231l-3.938462 3.938462c-5.907692 5.907692-7.876923 11.815385-9.846154 17.723077L41.353846 949.169231z" p-id="1116" fill="#ffffff"></path></svg>